<svg width="70.000000" height="59.000000" viewBox="0 0 70 59" fill="none" xmlns="http://www.w3.org/2000/svg" xmlns:xlink="http://www.w3.org/1999/xlink">
	<desc>
			Created with Pixso.
	</desc>
	<defs/>
	<path id="logotype" d="M37.6 23.54L31.42 12.82L24.68 24.5C21.79 24.88 19.03 25.38 16.43 25.98L31.42 0L45.06 23.64C43.3 23.56 41.52 23.52 39.71 23.52C39 23.52 38.3 23.52 37.6 23.54ZM31.42 3.94L20.32 23.18C21.35 23 22.39 22.83 23.45 22.67L31.42 8.87L38.73 21.55C39.06 21.55 39.38 21.55 39.71 21.55C40.33 21.55 40.96 21.55 41.58 21.56L31.42 3.94ZM9.77 46.05C9.77 51.05 14.49 55.6 22.22 59C8.91 55.79 0 49.95 0 43.27C0 38.07 5.4 33.37 14.08 30.04C16.43 29.13 19.03 28.33 21.82 27.64C22.22 27.54 22.62 27.45 23.03 27.35C27.74 26.27 32.97 25.52 38.54 25.17C39.12 25.13 39.71 25.1 40.3 25.07C42.06 24.99 43.85 24.95 45.67 24.95C45.72 24.95 45.77 24.95 45.81 24.95C53.81 24.96 61.32 25.79 67.84 27.25L67.84 27.25C68.57 27.41 69.29 27.58 70 27.76C69.73 27.73 69.46 27.7 69.19 27.67C65.2 27.21 60.98 26.97 56.63 26.97C53.4 26.97 50.25 27.11 47.21 27.36L55.21 41.23L11.27 41.23C10.29 42.77 9.77 44.38 9.77 46.05ZM44.11 34.82L40.27 28.17C31.58 29.48 24.12 31.82 18.74 34.82L44.11 34.82Z" fill="#0F00B6" fill-opacity="1.000000" fill-rule="evenodd"/>
</svg>
